<svg xmlns="http://www.w3.org/2000/svg" viewBox="0 0 200 200" width="200" height="200">
  <rect width="200" height="200" rx="8" fill="#f0f2f5"/>
  <path d="M55,55 L55,120 Q100,108 100,108 Q100,108 145,120 L145,55" fill="none" stroke="#6c757d" stroke-width="2.5" stroke-linejoin="round"/>
  <line x1="100" y1="50" x2="100" y2="115" stroke="#6c757d" stroke-width="2.5"/>
  <line x1="63" y1="68" x2="94" y2="62" stroke="#6c757d" stroke-width="1.5" stroke-linecap="round"/>
  <line x1="63" y1="78" x2="94" y2="72" stroke="#6c757d" stroke-width="1.5" stroke-linecap="round"/>
  <line x1="63" y1="88" x2="94" y2="82" stroke="#6c757d" stroke-width="1.5" stroke-linecap="round"/>
  <line x1="63" y1="98" x2="94" y2="92" stroke="#6c757d" stroke-width="1.5" stroke-linecap="round"/>
  <line x1="106" y1="62" x2="137" y2="68" stroke="#6c757d" stroke-width="1.5" stroke-linecap="round"/>
  <line x1="106" y1="72" x2="137" y2="78" stroke="#6c757d" stroke-width="1.5" stroke-linecap="round"/>
  <line x1="106" y1="82" x2="137" y2="88" stroke="#6c757d" stroke-width="1.5" stroke-linecap="round"/>
  <line x1="106" y1="92" x2="137" y2="98" stroke="#6c757d" stroke-width="1.5" stroke-linecap="round"/>
  <polygon points="100,35 75,47 100,55 125,47" fill="none" stroke="#6c757d" stroke-width="2" stroke-linejoin="round"/>
  <text x="100" y="165" text-anchor="middle" font-family="Helvetica, Arial, sans-serif" font-size="18" font-weight="600" fill="#6c757d">Education</text>
</svg>
