<svg xmlns="http://www.w3.org/2000/svg" viewBox="0 0 200 200" width="200" height="200">
  <rect width="200" height="200" rx="8" fill="#f0f2f5"/>
  <circle cx="68" cy="60" r="6" fill="#6c757d" opacity="0.7"/>
  <circle cx="80" cy="52" r="5" fill="#6c757d" opacity="0.7"/>
  <circle cx="75" cy="70" r="4.5" fill="#6c757d" opacity="0.7"/>
  <circle cx="62" cy="50" r="4" fill="#6c757d" opacity="0.7"/>
  <circle cx="85" cy="65" r="5" fill="#6c757d" opacity="0.7"/>
  <circle cx="130" cy="55" r="5.5" fill="#6c757d" opacity="0.45"/>
  <circle cx="140" cy="62" r="4.5" fill="#6c757d" opacity="0.45"/>
  <circle cx="125" cy="65" r="5" fill="#6c757d" opacity="0.45"/>
  <circle cx="138" cy="50" r="4" fill="#6c757d" opacity="0.45"/>
  <circle cx="132" cy="72" r="4" fill="#6c757d" opacity="0.45"/>
  <circle cx="95" cy="105" r="5.5" fill="#6c757d" opacity="0.6"/>
  <circle cx="108" cy="100" r="5" fill="#6c757d" opacity="0.6"/>
  <circle cx="100" cy="115" r="4.5" fill="#6c757d" opacity="0.6"/>
  <circle cx="88" cy="112" r="4" fill="#6c757d" opacity="0.6"/>
  <circle cx="112" cy="112" r="5" fill="#6c757d" opacity="0.6"/>
  <ellipse cx="74" cy="60" rx="28" ry="22" fill="none" stroke="#6c757d" stroke-width="1" stroke-dasharray="4,3" opacity="0.5"/>
  <ellipse cx="133" cy="60" rx="22" ry="22" fill="none" stroke="#6c757d" stroke-width="1" stroke-dasharray="4,3" opacity="0.5"/>
  <ellipse cx="100" cy="106" rx="28" ry="22" fill="none" stroke="#6c757d" stroke-width="1" stroke-dasharray="4,3" opacity="0.5"/>
  <text x="100" y="165" text-anchor="middle" font-family="Helvetica, Arial, sans-serif" font-size="18" font-weight="600" fill="#6c757d">Clusters</text>
</svg>
